<svg width="159" height="141" viewBox="0 0 159 141" fill="none" xmlns="http://www.w3.org/2000/svg">
<g clip-path="url(#clip0_2_88)">
<path fill-rule="evenodd" clip-rule="evenodd" d="M61.2737 76.03C55.4359 77.479 60.1614 86.3701 54.5617 88.8804C49.4186 91.1859 46.1297 96.5844 40.9544 99.4724C34.0924 103.302 27.6182 104.533 20.9325 109.553C17.6756 111.999 7.37543 110.532 7.06635 114.625C22.9348 112.161 31.4135 119.126 41.1822 120.43C49.803 121.58 56.3206 121.107 63.6142 118.312C88.9351 108.611 78.3354 86.7746 78.2367 80.1317C73.2426 79.2033 66.105 74.8308 61.2737 76.03Z" fill="#0C7A31"/>
<path d="M133.768 93.4369C133.482 94.1504 133.408 94.7386 133.502 95.2331C133.595 95.7276 133.853 96.1318 134.196 96.5153C134.539 96.8987 134.964 97.2674 135.418 97.6479C135.872 98.0284 136.359 98.4134 136.865 98.7821C137.371 99.1509 137.878 99.4516 138.371 99.6748C138.863 99.898 139.34 100.048 139.774 100.103C140.209 100.159 140.6 100.119 140.925 99.9421C141.25 99.7657 141.507 99.4528 141.677 98.9713C141.848 98.4899 141.851 98.0745 141.713 97.7268C141.574 97.379 141.295 97.1007 140.929 96.8609C140.562 96.6211 140.11 96.4191 139.638 96.178C139.167 95.9369 138.679 95.6496 138.216 95.2445C137.754 94.8393 137.364 94.2876 136.985 93.764C136.607 93.2405 136.234 92.7556 135.852 92.4568C135.469 92.158 135.084 92.043 134.729 92.1856C134.374 92.3282 133.482 94.1502 133.768 93.4369L133.768 93.4369Z" fill="#E1D6B9"/>
<path d="M135.882 92.0075C136.27 92.2491 136.656 92.64 137.042 93.0935C137.483 93.6117 137.927 94.2043 138.457 94.6723C138.987 95.1403 139.54 95.4841 140.075 95.7833C140.611 96.0826 141.124 96.3476 141.537 96.6617C141.951 96.9757 142.263 97.3393 142.421 97.7688C142.578 98.1983 142.582 98.6901 142.406 99.229C142.23 99.7679 141.933 100.139 141.547 100.363C141.162 100.586 140.688 100.664 140.163 100.63C139.638 100.596 139.063 100.454 138.474 100.222C137.885 99.9898 137.285 99.6627 136.695 99.2448C136.105 98.827 135.562 98.3977 135.068 97.9818C134.575 97.5659 134.129 97.1678 133.78 96.7473C133.647 96.5873 133.53 96.4224 133.43 96.2509C133.229 95.9043 133.604 95.1277 133.731 95.5233C133.849 95.8899 134.059 96.2089 134.328 96.5128C134.655 96.8832 135.061 97.2392 135.496 97.6061C135.931 97.973 136.4 98.3439 136.885 98.6993C137.37 99.0547 137.856 99.3449 138.329 99.5605C138.801 99.776 139.258 99.9209 139.674 99.9751C140.091 100.029 140.466 99.9907 140.777 99.8219C141.088 99.6531 141.334 99.3535 141.497 98.8915C141.66 98.4294 141.662 98.0301 141.53 97.6954C141.398 97.3606 141.132 97.0921 140.782 96.86C140.432 96.6278 140 96.4315 139.548 96.198C139.097 95.9645 138.629 95.6873 138.184 95.2977C137.739 94.9081 137.362 94.3785 136.999 93.8749C136.636 93.3714 136.28 92.9038 135.916 92.6142C135.87 92.578 135.825 92.5443 135.779 92.5138C135.662 92.4352 135.547 92.372 135.43 92.3384C135.295 92.2997 135.382 91.7195 135.716 91.9131C135.77 91.9445 135.85 92.0652 135.882 92.0075L135.882 92.0075Z" fill="#394655"/>
<path d="M112.489 119.962C113.66 122.189 113.229 124.751 113.449 126.653C113.668 128.555 114.533 129.786 115.216 130.742C115.9 131.699 116.499 132.328 117.112 132.53C117.725 132.732 118.34 132.513 119.013 131.763C119.686 131.013 119.957 130.158 119.947 129.18C119.936 128.202 119.635 127.106 119.24 125.788C118.844 124.471 118.406 122.918 117.499 121.212C116.593 119.506 115.352 117.51 113.342 115.544C111.332 113.578 108.819 112.027 106.626 110.761C104.432 109.494 102.545 108.507 101.066 107.78C99.5876 107.053 98.4817 106.593 97.6819 106.392C96.8821 106.19 96.3842 106.245 96.2075 106.557C96.0308 106.87 96.2955 107.39 97.0194 108.089C97.7432 108.788 98.9469 109.667 100.643 110.722C102.339 111.777 104.567 112.997 106.811 114.487C109.054 115.978 111.317 117.736 112.489 119.962V119.962Z" fill="#394655"/>
<path d="M112.927 119.341C114.091 121.184 114.16 123.282 114.18 125.142C114.199 127.002 114.635 128.39 115.228 129.383C115.821 130.376 116.406 131.056 116.942 131.358C117.478 131.661 117.995 131.574 118.55 130.962C119.105 130.351 119.265 129.6 119.164 128.711C119.063 127.821 118.704 126.792 118.327 125.525C117.951 124.258 117.57 122.753 116.76 121.166C115.95 119.578 114.793 117.818 113.131 116.122C111.469 114.425 109.427 113.067 107.579 111.956C105.731 110.845 104.079 109.974 102.77 109.311C101.46 108.649 100.47 108.201 99.7756 107.968C99.081 107.736 98.675 107.719 98.5733 107.929C98.4716 108.139 98.7875 108.547 99.5076 109.123C100.228 109.699 101.368 110.443 102.87 111.352C104.372 112.261 106.253 113.332 108.112 114.637C109.971 115.942 111.764 117.499 112.927 119.341V119.341Z" fill="#E1D6B9"/>
<path d="M67.2263 94.2382C64.816 93.5244 63.1901 91.8866 61.6346 90.9182C60.0791 89.9498 58.6066 89.6544 57.4548 89.4307C56.303 89.207 55.4484 89.1281 54.9031 89.2957C54.3577 89.4633 54.1233 89.8686 54.2461 90.5988C54.3689 91.329 54.8297 91.9337 55.5633 92.4788C56.2968 93.0238 57.3062 93.5017 58.5402 94.0609C59.7742 94.6201 61.211 95.2916 63.0639 95.8344C64.9167 96.3772 67.201 96.9303 69.9593 97.1131C72.7177 97.2959 75.4915 97.0149 77.8483 96.7204C80.2051 96.4259 82.1564 96.1151 83.651 95.8453C85.1457 95.5755 86.2015 95.3269 86.8672 95.0732C87.533 94.8194 87.8138 94.5604 87.6955 94.3036C87.5772 94.0469 87.0202 93.8762 86.0336 93.8154C85.047 93.7546 83.6166 93.8124 81.7379 93.9974C79.8593 94.1824 77.5151 94.5195 74.9594 94.7108C72.4037 94.9021 69.6366 94.9519 67.2263 94.2382V94.2382Z" fill="#394655"/>
<path d="M67.4046 94.7886C65.2843 94.2866 63.6802 93.1391 62.2856 92.1029C60.891 91.0666 59.5783 90.4861 58.4575 90.2001C57.3367 89.9141 56.4543 89.8005 55.8832 89.8763C55.3122 89.9522 55.0436 90.2385 55.14 90.8366C55.2364 91.4346 55.6908 91.9302 56.4169 92.3837C57.1429 92.8373 58.1403 93.251 59.3247 93.7903C60.5091 94.3296 61.873 95.0008 63.5756 95.5215C65.2782 96.0421 67.3334 96.5007 69.6664 96.6915C71.9994 96.8823 74.3262 96.7093 76.3445 96.4861C78.3629 96.2628 80.0766 95.9947 81.414 95.7661C82.7513 95.5375 83.7234 95.3355 84.3442 95.1474C84.965 94.9592 85.2394 94.7824 85.1491 94.6177C85.0587 94.4531 84.5517 94.3687 83.659 94.3754C82.7662 94.382 81.4778 94.4873 79.833 94.6653C78.1882 94.8434 76.1782 95.1045 74.0084 95.2237C71.8385 95.343 69.525 95.2906 67.4046 94.7886V94.7886Z" fill="#E1D6B9"/>
<path d="M109.234 16.4701C109.645 17.4481 110.443 18.2326 111.38 18.7939C112.316 19.3552 113.374 19.7054 114.406 19.8691C115.437 20.0328 116.453 20.0099 117.46 19.7539C118.467 19.498 119.658 19.0849 120.508 18.3623C121.359 17.6398 121.66 16.7389 121.841 15.9107C122.021 15.0825 122.164 14.1474 122.717 13.0205C123.269 11.8935 123.766 10.7506 123.723 9.91791C123.679 9.08522 123.482 8.32132 123.118 7.66421C122.754 7.00711 122.257 6.51738 121.66 6.1741C121.064 5.83082 120.367 5.63382 119.598 5.56817C118.829 5.50255 117.988 5.56769 117.1 5.7604C116.213 5.95313 115.281 6.27294 114.331 6.73708C113.381 7.20123 112.503 7.76778 111.733 8.42529C110.963 9.0828 110.301 9.83246 109.81 10.6532C109.318 11.474 109 12.3671 108.921 13.2817C108.842 14.1963 108.824 15.4922 109.234 16.4701V16.4701Z" fill="#96D6FF"/>
<path d="M114.802 5.90585C115.575 5.59754 116.334 5.37234 117.067 5.22219C118.043 5.02196 118.97 4.95611 119.819 5.02859C120.668 5.10109 121.437 5.31146 122.1 5.68135C122.762 6.05126 123.316 6.5798 123.728 7.29005C124.141 8.0003 124.375 8.82832 124.44 9.73219C124.504 10.6361 124.154 11.7909 123.531 13.0178C122.908 14.2447 122.736 15.2738 122.546 16.1716C122.356 17.0663 121.76 17.8873 120.674 18.572C120.548 18.6505 120.275 18.3182 120.371 18.2312C121.215 17.4768 121.421 16.5794 121.705 15.8342C121.885 15.0288 122.028 14.1189 122.571 13.0214C123.115 11.9239 123.604 10.8109 123.565 9.99992C123.525 9.18894 123.337 8.44405 122.984 7.80404C122.632 7.16398 122.148 6.6883 121.566 6.35403C120.984 6.01975 120.304 5.82651 119.552 5.76265C118.8 5.69881 117.977 5.76239 117.109 5.95026C116.674 6.04422 116.227 6.17021 115.773 6.32818C115.32 6.4861 114.859 6.67645 114.393 6.90228C113.462 7.3548 112.604 7.9069 111.85 8.5479C111.096 9.18885 110.448 9.92071 109.967 10.7201C109.487 11.5195 109.175 12.3876 109.096 13.2773C109.018 14.167 108.995 15.426 109.392 16.3769C109.717 17.1578 110.288 17.8208 111.006 18.3182C111.14 18.4107 110.598 18.9818 110.191 18.732C109.43 18.2655 108.912 17.5168 108.583 16.7255C108.138 15.6555 108.077 14.2969 108.154 13.2952C108.231 12.2934 108.572 11.3181 109.102 10.4287C109.633 9.53943 110.349 8.73426 111.187 8.03268C112.024 7.3311 112.984 6.73063 114.024 6.2427C114.284 6.12075 114.544 6.00898 114.802 5.9059L114.802 5.90585Z" fill="#394655"/>
<path d="M121.647 11.0896C121.51 10.8735 121.163 10.8007 120.624 10.9474C119.806 11.1703 118.87 12.0769 118.354 12.7699C118.071 13.1501 117.75 13.5167 117.588 13.9659C117.533 14.1184 117.484 14.2719 117.526 14.4836C117.713 14.4485 117.854 14.2087 117.95 14.0254C118.325 13.3029 118.853 12.6584 119.535 12.1844C120.109 11.7856 120.181 11.501 120.759 11.2565C121.124 11.1017 121.336 11.1872 121.647 11.0896V11.0896Z" fill="#394655"/>
<path d="M118.452 12.629C118.294 12.457 118.594 12.9838 118.792 13.05C119.538 13.2986 120.254 13.6335 120.989 13.9102C121.228 14.0003 121.297 13.7521 121.095 13.6234C120.89 13.4928 120.676 13.4046 120.454 13.3225C120.245 13.2456 120.019 13.2158 119.817 13.1243C119.428 12.9486 119.217 12.7115 118.84 12.5139C118.71 12.446 118.537 12.7205 118.453 12.6292L118.452 12.629Z" fill="#394655"/>
<path d="M141.654 81.1239C139.839 96.0601 136.635 110.564 125.313 120.469C111.031 132.964 84.775 134.615 66.2025 122.759C60.8315 119.331 56.5546 109.807 55.8694 103.648C54.4372 90.7737 59.7319 82.055 58.4953 70.1747C57.5111 60.7184 52.7216 52.8932 53.1754 41.6341C53.4799 34.0789 55.331 25.2881 61.0666 20.6177C68.5807 14.4991 77.3539 10.9954 87.3039 11.2367C101.474 11.5801 116.755 12.5546 128.64 21.6402C137.123 28.1249 141.985 38.8346 142.843 49.8264C143.723 61.1169 142.811 71.5932 141.654 81.1239V81.1239Z" fill="#394655"/>
<path d="M138.104 94.9286C135.073 108.665 126.723 121.467 111.917 126.536C98.1609 131.245 80.0673 130.139 66.6853 121.213C61.5917 117.816 57.7061 108.409 57.1475 102.574C55.9717 90.2898 60.8581 81.2882 59.7391 69.9511C58.8049 60.4877 54.2802 53.6299 54.4215 42.406C54.5139 35.0707 56.173 26.3739 61.7895 21.8237C68.9049 16.0591 77.0534 12.3995 86.4245 12.4466C101.273 12.5212 118.015 13.5992 129.837 24.2499C140.645 33.9874 142.185 51.1336 141.683 64.5198C141.27 75.5606 140.189 85.4835 138.104 94.9286V94.9286Z" fill="#96D6FF"/>
<path d="M65.2668 17.889C65.9606 19.0879 66.1748 20.4111 66.0712 21.667C65.9675 22.923 65.5689 24.1036 65.0059 25.1104C64.4429 26.1172 63.7077 26.9593 62.749 27.603C61.7903 28.2467 60.5489 28.9202 59.235 29.0345C57.9211 29.1489 56.8058 28.6231 55.832 28.0148C54.8581 27.4065 53.7814 26.6195 52.2343 26.0357C50.6872 25.4519 49.1725 24.8314 48.3284 23.9705C47.4843 23.1096 46.8119 22.1659 46.3595 21.1616C45.9071 20.1574 45.7156 19.1851 45.7437 18.2621C45.7719 17.3392 46.0198 16.4659 46.4607 15.6724C46.9016 14.8789 47.5356 14.1654 48.3488 13.5741C49.1621 12.9827 50.1543 12.5139 51.3279 12.2191C52.5015 11.9243 53.7483 11.8316 55.017 11.9271C56.2857 12.0226 57.577 12.306 58.81 12.7689C60.0431 13.2318 61.2162 13.8749 62.2238 14.6914C63.2314 15.5079 64.5731 16.6902 65.2668 17.889V17.889Z" fill="#96D6FF"/>
<path d="M50.147 11.8543C49.2709 12.1793 48.5027 12.6028 47.8412 13.1008C46.9591 13.7648 46.2684 14.5609 45.7838 15.4415C45.2991 16.3222 45.0197 17.2857 44.9778 18.3016C44.9358 19.3174 45.1309 20.3832 45.6051 21.4814C46.0794 22.5797 46.7907 23.612 47.69 24.5487C48.5892 25.4853 50.0134 26.2406 51.7011 26.8279C53.3888 27.4153 54.574 28.2459 55.6177 28.8876C56.6578 29.527 57.8894 29.7069 59.3283 29.3541C59.494 29.3132 59.3533 28.7967 59.1999 28.8039C57.8573 28.8816 56.8063 28.2622 55.8454 27.8211C54.8937 27.2288 53.8421 26.4619 52.3302 25.8941C50.8184 25.3264 49.3381 24.7223 48.5125 23.8838C47.6869 23.0453 47.0279 22.1257 46.5851 21.1469C46.1422 20.1682 45.9561 19.2208 45.9836 18.3205C46.011 17.4201 46.2524 16.5662 46.684 15.7911C47.1158 15.016 47.7356 14.3196 48.5317 13.7408C48.9298 13.4515 49.3737 13.1914 49.8596 12.968C50.3454 12.7446 50.8749 12.5565 51.4488 12.4112C52.5969 12.1215 53.8145 12.0303 55.054 12.1223C56.2935 12.2142 57.5562 12.4907 58.7595 12.942C59.9627 13.3934 61.1057 14.0201 62.0888 14.8166C63.0719 15.6131 64.3812 16.765 65.0598 17.9332C65.6171 18.8926 65.8738 19.9316 65.8619 20.9537C65.8596 21.144 66.8062 21.1631 66.8466 20.6138C66.9215 19.5886 66.5472 18.5355 65.9892 17.5821C65.2345 16.2928 63.8969 15.0185 62.8074 14.136C61.7178 13.2535 60.4485 12.5619 59.1181 12.0696C57.7877 11.5773 56.3984 11.2821 55.0332 11.1933C53.6681 11.1046 52.3245 11.2219 51.0598 11.5629C50.7436 11.6481 50.4394 11.7462 50.1472 11.8542L50.147 11.8543Z" fill="#394655"/>
<path d="M52.7928 19.7738C52.8905 19.3908 53.3675 19.1183 54.2307 19.0781C55.542 19.017 57.3516 19.9067 58.4405 20.6821C59.0378 21.1074 59.6848 21.4945 60.138 22.0787C60.2918 22.277 60.4365 22.4799 60.4754 22.8115C60.1838 22.8486 59.8609 22.5631 59.6334 22.3385C58.7365 21.4532 57.6523 20.7553 56.4229 20.3816C55.3885 20.0672 55.1463 19.6827 54.1798 19.5973C53.5679 19.5432 53.2973 19.7696 52.7928 19.7738V19.7738Z" fill="#394655"/>
<path d="M58.2287 20.5213C58.3805 20.1926 58.1895 21.111 57.9283 21.303C56.9482 22.0238 56.0536 22.8575 55.1029 23.6147C54.7933 23.8612 54.574 23.5284 54.8105 23.2428C55.0507 22.9526 55.3227 22.7214 55.6117 22.4944C55.8827 22.2819 56.2014 22.1305 56.4556 21.8996C56.9442 21.456 57.1416 21.0068 57.6037 20.536C57.7622 20.3745 58.1477 20.6962 58.2283 20.5217L58.2287 20.5213Z" fill="#394655"/>
<path d="M81.8908 125.295C81.1347 125.158 80.543 125.202 80.078 125.395C79.613 125.588 79.2714 125.928 78.9777 126.361C78.684 126.794 78.4328 127.317 78.1807 127.88C77.9286 128.443 77.6818 129.045 77.4409 129.651C77.2 130.257 77.0147 130.842 76.8953 131.388C76.7759 131.935 76.7184 132.443 76.7474 132.89C76.7763 133.338 76.8941 133.725 77.1425 134.028C77.391 134.33 77.7714 134.548 78.3128 134.656C78.8542 134.763 79.292 134.707 79.6376 134.524C79.9831 134.341 80.2345 134.032 80.4251 133.635C80.6158 133.238 80.7455 132.753 80.8865 132.218C81.0275 131.684 81.1857 131.099 81.4357 130.491C81.6857 129.884 82.0673 129.297 82.4309 128.74C82.7944 128.183 83.1336 127.656 83.3163 127.188C83.4991 126.72 83.5253 126.311 83.3112 125.989C83.0971 125.667 82.6469 125.432 81.8908 125.295V125.295Z" fill="#E1D6B9"/>
<path d="M83.7461 127.111C83.6126 127.565 83.3554 128.071 83.0547 128.612C82.7111 129.23 82.3154 129.893 82.0282 130.593C81.741 131.294 81.5418 131.96 81.3509 132.567C81.16 133.174 80.9693 133.722 80.7055 134.172C80.4416 134.621 80.1045 134.972 79.6769 135.184C79.2494 135.395 78.7345 135.469 78.1378 135.369C77.5411 135.269 77.0992 135.024 76.7944 134.672C76.4897 134.32 76.3204 133.861 76.2523 133.329C76.1842 132.797 76.2146 132.193 76.3241 131.55C76.4337 130.906 76.627 130.224 76.9015 129.525C77.176 128.827 77.4594 128.165 77.7453 127.562C78.0313 126.96 78.3165 126.418 78.6531 125.98C78.7812 125.814 78.9183 125.663 79.0662 125.529C79.365 125.259 80.2022 125.475 79.8427 125.683C79.5096 125.877 79.4011 126.131 79.1751 126.474C78.8997 126.892 78.7033 127.431 78.4819 127.948C78.2604 128.465 77.8518 128.952 77.6343 129.491C77.4169 130.029 77.2512 130.552 77.1457 131.051C77.0402 131.549 76.9903 132.024 77.0179 132.446C77.0456 132.867 77.1543 133.235 77.3825 133.517C77.6108 133.8 77.9597 133.995 78.4411 134.09C78.9225 134.184 79.3022 134.132 79.5883 133.959C79.8744 133.786 79.8958 133.299 80.0313 132.931C80.1668 132.564 80.3794 132.114 80.5006 131.641C80.6217 131.169 80.8245 130.866 81.1163 130.345C81.4081 129.824 81.8562 129.313 82.2673 128.784C82.6785 128.255 83.0097 127.743 83.1855 127.293C83.2074 127.237 83.2273 127.181 83.2444 127.127C83.2883 126.987 83.3197 126.854 83.3236 126.727C83.328 126.581 83.9005 126.537 83.7956 126.92C83.7786 126.982 83.7652 127.046 83.7461 127.111L83.7461 127.111Z" fill="#394655"/>
<g opacity="0.06">
<path d="M119.773 66.8495C116.274 66.8495 113.437 64.2361 113.437 61.0123C113.437 57.7885 116.274 55.1751 119.773 55.1751C123.272 55.1751 126.109 57.7885 126.109 61.0123C126.109 64.2361 123.272 66.8495 119.773 66.8495Z" fill="black"/>
<path d="M54.0378 12.277C52.1691 12.2571 51.006 12.5125 49.632 13.1992C48.2102 13.9096 46.7973 15.4334 46.3715 16.7154C45.731 18.6439 46.2525 20.9278 47.7876 22.9176C48.6896 24.0868 49.7207 24.7692 51.9107 25.6467C52.8162 26.0095 54.0809 26.6348 54.7213 27.0363C56.3077 28.031 57.4971 28.5374 58.5429 28.6635C59.2264 28.7459 59.4221 28.8433 59.4221 29.1023C59.4221 29.354 59.2228 29.4651 58.6063 29.5576C58.1578 29.6249 57.542 29.6255 57.2376 29.5587C56.6873 29.4378 56.6816 29.4445 56.2058 30.8811C55.1117 34.1844 54.5615 38.1784 54.5665 42.7785C54.572 47.9485 55.0818 50.9322 57.2702 58.5962C58.8397 64.0929 59.2899 66.0475 59.6917 69.1123C60.2711 73.5329 60.0627 76.6206 58.5892 85.4222C57.2165 93.6222 57.1333 94.3676 57.1263 98.5576C57.1196 102.588 57.3055 104.16 58.1212 106.971C59.6582 112.269 61.9956 116.6 64.8687 119.474C67.1273 121.733 71.2547 124.064 76.5059 126.045C78.051 126.628 78.153 126.644 78.331 126.326C78.8172 125.457 79.2366 125.26 80.9647 125.254C70.0481 115.726 71.2329 102.028 73.7616 94.51C75.8315 88.3555 82.7279 79.4861 82.7279 79.4861L76.4031 78.9266C76.4031 78.9266 74.3543 66.8934 72.69 62.0197C66.3157 43.3535 64.273 28.0517 73.9235 17.3724C75.5725 15.5476 77.4791 14.2078 79.4577 13.2245C76.9101 13.7604 74.2925 14.5808 72.0025 15.5749C70.125 16.39 66.6363 18.3717 66.6419 18.6198C66.6445 18.7301 66.7287 19.1772 66.8293 19.6137C67.0547 20.5906 66.8066 21.1827 66.2081 21.0976C65.8731 21.0499 65.7855 20.8828 65.6916 20.1136C65.5135 18.6542 64.7883 17.4613 63.1323 15.9035C60.5206 13.4466 58.2508 12.4552 54.8845 12.3018C54.586 12.2882 54.3048 12.2799 54.0378 12.277V12.277ZM54.4275 19.079C54.9593 19.0971 55.5548 19.1967 56.0884 19.3739C57.215 19.7481 59.5756 21.2621 60.1282 21.9646C60.9763 23.0428 60.4243 23.0963 59.1674 22.0577C58.6749 21.6507 58.2164 21.318 58.1488 21.318C58.0812 21.318 57.3619 21.8587 56.5503 22.5197C55.7386 23.1806 54.9704 23.7213 54.8432 23.7219C54.3102 23.7238 54.6837 23.1341 55.7207 22.3361C57.031 21.3278 57.3828 20.8156 56.886 20.64C56.7035 20.5755 56.0608 20.3199 55.4578 20.0717C54.6076 19.7219 54.1817 19.6474 53.5616 19.7404C52.6961 19.8702 52.483 19.6301 53.1482 19.2741C53.4275 19.1246 53.8958 19.0609 54.4275 19.079V19.079ZM83.718 127.378C83.7166 127.382 83.716 127.385 83.7147 127.389L83.5168 128.035L85.1131 128.322C85.1386 128.327 85.1711 128.331 85.1969 128.336C84.6841 128.022 84.1915 127.702 83.718 127.378V127.378Z" fill="black"/>
<path opacity="0.06" fill-rule="evenodd" clip-rule="evenodd" d="M80.5145 79.5247L79.2512 83.7242C79.9876 83.7314 82.0287 81.9124 83.9802 81.8C105.696 80.5495 119.272 81.6856 136.83 80.2746C137.24 80.2416 137.893 80.2437 138.299 80.3332C139.771 80.6571 140.583 84.3898 140.942 84.1729C141.113 80.1855 140.286 78.7707 139.3 77.7671L80.5145 79.5247Z" fill="black"/>
</g>
<path d="M71.5151 43.0926C71.5967 45.8279 72.2796 48.4674 73.439 50.9164C74.5983 53.3654 76.2335 55.6246 78.2171 57.5818C80.2007 59.539 82.5323 61.194 85.0902 62.4127C87.6481 63.6314 90.4324 64.413 93.3304 64.6092C96.2285 64.8053 98.967 64.3946 101.444 63.4671C103.921 62.5396 106.136 61.0956 107.981 59.2446C109.825 57.3935 111.298 55.1357 112.289 52.5956C113.279 50.0556 113.787 47.2334 113.704 44.2666C113.62 41.2999 112.955 38.4721 111.826 35.9195C110.697 33.367 109.104 31.0901 107.165 29.2059C105.226 27.3217 102.939 25.8302 100.414 24.8246C97.8881 23.819 95.123 23.2983 92.2238 23.3386C89.3247 23.3788 86.565 23.9732 84.0561 24.9942C81.5473 26.0153 79.2899 27.4638 77.4039 29.2373C75.5179 31.0108 74.0038 33.1098 72.9826 35.4465C71.9614 37.7831 71.4336 40.3573 71.5151 43.0926V43.0926Z" fill="#394655"/>
<path d="M72.9419 42.4677C72.9417 45.0415 73.5003 47.5669 74.5183 49.9397C75.5363 52.3125 77.0144 54.5328 78.8469 56.4673C80.6793 58.4018 82.8659 60.0487 85.2879 61.2592C87.7099 62.4696 90.3662 63.2427 93.1348 63.438C95.9033 63.6332 98.5215 63.2319 100.886 62.3397C103.25 61.4475 105.361 60.0645 107.119 58.3048C108.878 56.545 110.284 54.4083 111.236 52.0175C112.188 49.6267 112.687 46.9818 112.629 44.2154C112.572 41.4489 111.964 38.8255 110.92 36.4646C109.876 34.1037 108.395 32.0055 106.588 30.2669C104.781 28.5283 102.648 27.149 100.292 26.204C97.9352 25.259 95.3549 24.7471 92.6469 24.7332C89.9389 24.7193 87.3587 25.2021 85.0068 26.0746C82.6549 26.9471 80.5318 28.2103 78.7453 29.7847C76.9587 31.3591 75.5088 33.2453 74.5047 35.379C73.5007 37.5127 72.9422 39.894 72.9419 42.4677Z" fill="white"/>
<path d="M88.0603 48.4216C84.9096 48.4216 82.3554 45.8674 82.3554 42.7167C82.3554 39.5659 84.9096 37.0118 88.0603 37.0118C91.2111 37.0118 93.7653 39.5659 93.7653 42.7167C93.7653 45.8674 91.2111 48.4216 88.0603 48.4216Z" fill="#394455"/>
<path d="M90.5855 42.9037C89.0359 42.9037 87.7798 41.6476 87.7798 40.098C87.7798 38.5485 89.0359 37.2923 90.5855 37.2923C92.135 37.2923 93.3912 38.5485 93.3912 40.098C93.3912 41.6476 92.135 42.9037 90.5855 42.9037Z" fill="white"/>
<path d="M125.259 32.5086C125.205 34.6735 125.646 37.0127 126.305 39.4303C126.965 41.8478 127.821 44.347 128.688 46.736C129.554 49.125 130.432 51.3922 131.384 53.3297C132.337 55.2673 133.379 56.8751 134.665 58.0284C135.951 59.1817 137.373 59.7796 138.907 59.9097C140.441 60.0398 142.362 60.3047 144.005 59.5579C145.647 58.811 147.268 57.6478 148.712 56.1054C150.155 54.563 151.421 52.6405 152.351 50.3809C153.28 48.1213 153.781 45.7398 153.85 43.3748C153.919 41.0098 153.554 38.6623 152.778 36.4644C152.003 34.2664 150.245 31.5561 148.707 29.7749C147.168 27.9936 145.276 26.4786 143.126 25.3429C140.977 24.2073 138.778 23.5576 136.696 23.3495C134.614 23.1415 132.648 23.376 130.957 24.0171C129.266 24.6582 127.85 25.7055 126.859 27.1276C125.868 28.5497 125.313 30.3436 125.259 32.5086V32.5086Z" fill="#394655"/>
<path d="M126.208 32.764C126.096 34.7736 126.406 36.9715 126.952 39.261C127.498 41.5506 128.273 43.9326 129.132 46.2063C129.991 48.4801 130.929 50.634 131.933 52.4678C132.937 54.3015 134.015 55.8162 135.271 56.9C136.527 57.9837 137.857 58.5425 139.265 58.6626C140.672 58.7828 142.457 59.0676 143.93 58.3652C145.404 57.6628 146.851 56.5715 148.136 55.1277C149.422 53.6839 150.546 51.8867 151.363 49.7782C152.179 47.6696 152.607 45.4504 152.642 43.2483C152.677 41.0463 152.317 38.862 151.584 36.8152C150.852 34.7684 149.167 32.1849 147.738 30.5214C146.31 28.8578 144.562 27.4392 142.584 26.3698C140.607 25.3004 138.593 24.6808 136.694 24.4681C134.794 24.2554 133.011 24.4501 131.48 25.0185C129.949 25.587 128.672 26.5281 127.763 27.8206C126.855 29.1131 126.321 30.7545 126.208 32.764V32.764Z" fill="white"/>
<path d="M147.241 42.3464C144.936 41.6091 143.665 39.1427 144.402 36.8374C145.139 34.5322 147.606 33.2611 149.911 33.9984C152.216 34.7357 153.487 37.2022 152.75 39.5074C152.013 41.8127 149.546 43.0837 147.241 42.3464Z" fill="#394455"/>
<path d="M149.686 38.574C148.552 38.2114 147.927 36.9984 148.289 35.8647C148.652 34.731 149.865 34.1058 150.999 34.4684C152.132 34.8311 152.758 36.0441 152.395 37.1778C152.032 38.3115 150.819 38.9366 149.686 38.574Z" fill="white"/>
<path d="M122.614 59.6178L120.817 59.6412L119.77 59.618C119.436 59.6106 119.138 59.7691 118.921 60.0029C118.705 60.2366 118.598 60.5603 118.547 60.9136L118.261 62.9133L117.864 64.9202C117.793 65.2816 117.888 65.6002 118.063 65.8321C118.239 66.064 118.507 66.1961 118.824 66.2037L119.881 66.2288L121.971 66.1801C122.372 66.1708 122.745 66.015 123.018 65.7757C123.291 65.5364 123.453 65.211 123.485 64.8559L123.668 62.8644L123.816 60.8762C123.843 60.5223 123.684 60.2053 123.462 59.9782C123.24 59.7512 122.938 59.6158 122.614 59.6178L122.614 59.6178Z" fill="#2E3436"/>
<path d="M122.286 60.2231L120.82 60.2428L120.121 60.2142C119.856 60.2033 119.611 60.3372 119.426 60.5285C119.242 60.7199 119.135 60.9851 119.084 61.2745L118.802 62.9095L118.447 64.5488C118.384 64.8414 118.448 65.1049 118.585 65.2943C118.723 65.4837 118.943 65.5861 119.206 65.5966L119.923 65.6251L121.584 65.5891C121.899 65.5823 122.198 65.4559 122.424 65.2605C122.649 65.0652 122.793 64.7991 122.83 64.5084L123.036 62.8799L123.214 61.2535C123.245 60.9638 123.133 60.7039 122.962 60.5179C122.791 60.332 122.551 60.2195 122.286 60.2231L122.286 60.2231Z" fill="white"/>
<path d="M114.108 57.9222C114.158 58.5632 114.553 59.1432 115.114 59.6654C115.675 60.1876 116.45 60.6505 117.348 61.0297C118.246 61.4089 119.259 61.7005 120.285 61.8563C121.311 62.0121 122.35 62.0294 123.372 61.9062C124.393 61.783 125.308 61.5379 126.102 61.2349C126.896 60.932 127.564 60.5726 128.089 60.174C128.615 59.7753 129.003 59.3338 129.249 58.8409C129.494 58.348 129.596 57.8024 129.507 57.2145C129.418 56.6265 129.142 56.0532 128.717 55.5264C128.291 54.9997 127.719 54.5201 127.047 54.121C126.375 53.7219 125.604 53.4036 124.753 53.1949C123.902 52.9862 122.97 52.887 121.95 52.9206C120.931 52.9543 119.913 53.1166 118.947 53.3849C117.981 53.6532 117.07 54.0293 116.311 54.4886C115.552 54.9479 114.929 55.4771 114.565 56.0745C114.192 56.6864 114.065 57.376 114.108 57.9222V57.9222Z" fill="#394655"/>
<path d="M116.267 57.7782C116.354 58.2874 116.652 58.763 117.109 59.1891C117.567 59.6152 118.183 59.9926 118.884 60.2938C119.584 60.595 120.365 60.8177 121.162 60.9347C121.958 61.0517 122.771 61.0624 123.569 60.9649C124.368 60.8674 125.082 60.6743 125.701 60.4274C126.32 60.1805 126.843 59.8803 127.252 59.5454C127.662 59.2104 127.961 58.8393 128.136 58.4351C128.312 58.0309 128.366 57.5926 128.275 57.1283C128.183 56.664 127.953 56.218 127.614 55.811C127.275 55.4041 126.827 55.0368 126.299 54.7327C125.771 54.4287 125.165 54.1881 124.496 54.0325C123.827 53.8769 123.095 53.8063 122.304 53.8391C121.512 53.8719 120.731 54.0045 119.993 54.2177C119.255 54.4308 118.562 54.725 117.976 55.0817C117.39 55.4385 116.915 55.858 116.612 56.3158C116.309 56.7737 116.179 57.269 116.267 57.7782V57.7782Z" fill="#E1D0CB"/>
<path d="M119.1 54.6706C119.227 55.0355 119.505 55.3595 119.889 55.633C120.273 55.9065 120.762 56.1299 121.292 56.3013C121.823 56.4726 122.393 56.5924 122.951 56.6561C123.508 56.7199 124.054 56.7273 124.565 56.6708C125.076 56.6143 125.507 56.4994 125.872 56.3394C126.238 56.1794 126.536 55.9744 126.772 55.733C127.007 55.4917 127.179 55.2136 127.28 54.9055C127.38 54.5975 127.407 54.2592 127.339 53.9016C127.271 53.544 127.113 53.2012 126.874 52.8915C126.634 52.5817 126.314 52.3052 125.927 52.0808C125.54 51.8565 125.086 51.6845 124.582 51.5823C124.077 51.4802 123.523 51.4479 122.938 51.5002C122.354 51.5525 121.794 51.684 121.288 51.8755C120.783 52.067 120.33 52.3183 119.964 52.6098C119.598 52.9014 119.318 53.2333 119.162 53.5843C119.005 53.9354 118.972 54.3057 119.1 54.6706V54.6706Z" fill="#394655"/>
<path d="M85.5128 90.7812C84.9812 91.3361 84.6919 91.8541 84.5961 92.3483C84.5004 92.8425 84.5955 93.3149 84.7944 93.7987C84.9934 94.2824 85.2917 94.781 85.622 95.3017C85.9524 95.8223 86.3186 96.3605 86.6912 96.8958C87.0638 97.4311 87.4489 97.908 87.8388 98.309C88.2287 98.71 88.6207 99.0382 89.01 99.261C89.3992 99.4838 89.7871 99.5991 90.1766 99.5589C90.5661 99.5186 90.958 99.3217 91.3462 98.9293C91.7344 98.537 91.9291 98.1408 91.9673 97.7519C92.0055 97.3629 91.8862 96.9825 91.6602 96.6045C91.4341 96.2264 91.1016 95.8509 90.7332 95.4382C90.3648 95.0254 89.9643 94.5709 89.5956 94.0273C89.227 93.4838 88.9478 92.8415 88.6838 92.231C88.4198 91.6205 88.1677 91.0471 87.8779 90.6364C87.5881 90.2256 87.2617 89.9782 86.8749 89.9791C86.4881 89.98 86.0444 90.2262 85.5128 90.7812V90.7812Z" fill="#E1D6B9"/>
<path d="M88.0507 90.2353C88.3555 90.5971 88.6357 91.0908 88.9212 91.6401C89.2475 92.2679 89.5821 92.9636 90.0077 93.5895C90.4332 94.2153 90.8788 94.7488 91.28 95.2431C91.6812 95.7373 92.0328 96.1985 92.2622 96.6666C92.4916 97.1347 92.5981 97.6092 92.5389 98.0828C92.4798 98.5563 92.257 99.0262 91.8443 99.4686C91.4316 99.911 90.9839 100.145 90.5223 100.205C90.0606 100.265 89.5839 100.152 89.1027 99.9159C88.6216 99.6794 88.1348 99.321 87.6585 98.8746C87.1822 98.4282 86.7196 97.8905 86.2886 97.2763C85.8576 96.6621 85.4613 96.0602 85.1166 95.4894C84.7719 94.9185 84.4771 94.3816 84.2978 93.8594C84.2296 93.6607 84.1796 93.4633 84.1497 93.2661C84.0893 92.8679 84.731 92.2887 84.7066 92.7036C84.684 93.088 84.7706 93.463 84.9276 93.8448C85.119 94.3101 85.406 94.7895 85.7237 95.2904C86.0414 95.7912 86.3937 96.3087 86.7521 96.8235C87.1105 97.3384 87.4807 97.7971 87.8557 98.1828C88.2307 98.5685 88.6078 98.8843 88.9822 99.0985C89.3566 99.3128 89.7298 99.4236 90.1044 99.3849C90.479 99.3462 90.8559 99.157 91.2292 98.7796C91.6025 98.4022 91.7899 98.021 91.8267 97.6469C91.8634 97.2728 91.7488 96.907 91.5314 96.5434C91.314 96.1798 90.994 95.8185 90.6397 95.4215C90.2853 95.0246 89.9002 94.5875 89.5456 94.0647C89.1911 93.5419 88.9225 92.9242 88.6685 92.337C88.4146 91.7498 88.1721 91.1985 87.8934 90.8035C87.8585 90.7541 87.8231 90.7069 87.7871 90.6626C87.6947 90.5487 87.6009 90.4491 87.4973 90.3759C87.3778 90.2916 87.657 89.7899 87.9185 90.0886C87.961 90.1371 88.0072 90.1837 88.0507 90.2354L88.0507 90.2353Z" fill="#394655"/>
<path fill-rule="evenodd" clip-rule="evenodd" d="M58.5596 74.9119C55.9923 80.9396 54.2426 83.1167 50.0162 87.566C46.77 90.9835 41.8738 94.4709 37.6517 98.7468C33.8269 102.62 30.2791 104.675 19.5267 107.781C16.1472 108.757 7.10014 109.63 5 118.309C18.0862 109.59 39.5233 111.716 52.2877 104.315C62.9948 98.1063 77.5241 80.7585 88.2826 79.3743C68.1181 79.1859 62.1481 77.8988 58.5596 74.9119Z" fill="#019833"/>
<path fill-rule="evenodd" clip-rule="evenodd" d="M121.401 78.3221L142.222 76.8825C142.222 76.8825 142.869 77.1775 142.98 77.4794C145.058 83.1184 139.39 94.6507 139.39 94.6507C139.39 93.8121 143.208 82.2486 137.72 79.5616C133.079 77.2892 126.95 78.978 121.401 78.3221V78.3221Z" fill="#019833"/>
<path fill-rule="evenodd" clip-rule="evenodd" d="M58.356 75.3796C55.8983 81.0479 54.1288 83.2362 50.0162 87.5658C46.7699 90.9833 41.8739 94.4708 37.6519 98.7467C33.827 102.62 30.2792 104.675 19.5268 107.781C16.5264 108.648 9.06259 109.438 5.95532 115.677C6.72624 114.692 7.98921 114.301 8.74405 113.221C10.016 111.403 25.9102 109.943 30.1008 107.276C32.8586 105.52 39.3046 102.28 42.5422 100.107C45.7798 97.9327 56.7009 88.868 59.4701 88.3585C68.2165 86.749 75.2883 79.3395 75.2883 79.3395C75.2883 79.3395 73.6602 78.961 73.2267 78.8605C65.7576 78.3033 62.0584 77.285 59.5957 75.6767C59.0935 75.5571 58.5271 75.4231 58.356 75.3796V75.3796Z" fill="#019432"/>
<path fill-rule="evenodd" clip-rule="evenodd" d="M58.6324 73.6091C60.0233 73.9575 60.7706 75.0878 62.1318 75.5387C66.3175 76.9252 70.0963 77.8359 74.4941 78.155C79.9089 78.548 85.8107 78.5788 91.2388 78.4821C101.577 78.2978 111.981 77.9391 122.308 77.4355C127.939 77.161 133.762 76.7895 139.38 76.3236C140.472 76.233 141.631 74.6144 142.65 75.0154C143.326 75.2812 143.218 75.9467 143.396 76.6506C144.085 78.0424 143.437 78.5258 141.8 78.8091C136.314 79.6706 130.735 79.8134 125.186 80.0519C111.636 80.6343 98.0633 80.6492 84.5017 80.5098C79.7029 80.4605 74.8724 80.6573 70.1117 80.0519C66.3651 79.5755 62.5186 79.0778 59.0575 77.5664C57.8936 77.0581 56.8013 76.7963 56.5252 75.5567C56.4384 75.1669 56.8623 74.9422 57.0563 74.6254C57.2184 74.3608 57.1165 73.9875 57.4059 73.8217C57.7843 73.6049 58.2094 73.5031 58.6324 73.6091V73.6091Z" fill="#01A939"/>
<path fill-rule="evenodd" clip-rule="evenodd" d="M57.2266 74.0407C57.1567 74.2209 57.1655 74.4472 57.0563 74.6255C56.8622 74.9422 56.4386 75.1667 56.5254 75.5565C56.8015 76.7961 57.8938 77.058 59.0577 77.5662C62.5188 79.0777 66.3652 79.5752 70.1118 80.0517C74.8725 80.6571 79.703 80.4604 84.5018 80.5097C98.0635 80.6491 111.637 80.6341 125.186 80.0517C130.735 79.8132 136.314 79.6707 141.8 78.8092C143.437 78.5259 144.085 78.0424 143.396 76.6507C143.38 76.5885 143.369 76.5273 143.357 76.466C143.494 77.7782 141.476 77.8499 140.005 78.1373C130.511 79.9931 120.678 79.1374 111.005 79.2932C98.9042 79.4881 84.6605 81.1334 72.7444 79.0159C67.7236 78.1237 60.3537 76.145 57.2266 74.0407V74.0407Z" fill="#019D35"/>
<path d="M98 90C98 88.8954 98.8954 88 100 88H109V108H100C98.8954 108 98 107.105 98 106V90Z" fill="#394D54"/>
<path d="M110 88H119C120.105 88 121 88.8954 121 90V98H110V88Z" fill="#394D54"/>
<path d="M110 99H121V106C121 107.105 120.105 108 119 108H110V99Z" fill="#394D54"/>
<path d="M98 109H121V109C121 109.552 120.552 110 120 110H99C98.4477 110 98 109.552 98 109V109Z" fill="#019833"/>
</g>
<defs>
<clipPath id="clip0_2_88">
<rect width="158.858" height="140.413" fill="white"/>
</clipPath>
</defs>
</svg>
